<?xml version="1.0" encoding="UTF-8" standalone="no"?>
<!DOCTYPE svg PUBLIC "-//W3C//DTD SVG 1.1//EN" "http://www.w3.org/Graphics/SVG/1.1/DTD/svg11.dtd">
<svg width="100%" height="100%" viewBox="0 0 3282 1156" version="1.1" xmlns="http://www.w3.org/2000/svg" xmlns:xlink="http://www.w3.org/1999/xlink" xml:space="preserve" xmlns:serif="http://www.serif.com/" style="fill-rule:evenodd;clip-rule:evenodd;stroke-linejoin:round;stroke-miterlimit:2;">
    <g id="Layer1" transform="matrix(1,0,0,1,1088.95,222.5)">
        <g transform="matrix(3.79493,0,0,3.79493,-1523.63,-1193.6)">
            <g transform="matrix(1.29,0,0,1.08,-164.292,-41.8094)">
                <g transform="matrix(39,0,0,39,811.192,522.618)">
                </g>
                <text x="566.526px" y="522.618px" style="font-family:'Arial-BoldMT', 'Arial', sans-serif;font-weight:700;font-size:39px;fill:rgb(202,114,28);">S<tspan x="594.683px 627.164px 653.131px 683.441px 709.409px 722.389px 754.87px 785.179px " y="522.618px 522.618px 522.618px 522.618px 522.618px 522.618px 522.618px 522.618px ">OLUTIONS</tspan></text>
            </g>
        </g>
        <g transform="matrix(4.05326,0,0,2.37594,-1687.94,-596.632)">
            <path d="M338.504,316.498L338.504,495.486L309.638,495.486L309.638,469.207C304.846,479.426 299.187,487.035 292.662,492.033C286.137,497.03 279.556,499.529 272.92,499.529C259.428,499.529 247.87,491.246 238.248,474.681C228.626,458.116 223.816,435.01 223.816,405.361C223.816,375.039 228.497,351.988 237.861,336.209C247.225,320.43 259.059,312.541 273.363,312.541C286.487,312.541 297.841,320.851 307.426,337.472L307.426,316.498L338.504,316.498ZM255.557,402.16C255.557,421.252 257.289,435.066 260.755,443.601C265.768,455.955 272.773,462.131 281.768,462.131C288.92,462.131 295.003,457.499 300.016,448.234C305.03,438.968 307.537,425.127 307.537,406.709C307.537,386.157 305.104,371.361 300.238,362.32C295.371,353.279 289.141,348.759 281.547,348.759C274.174,348.759 267.999,353.223 263.022,362.151C258.045,371.08 255.557,384.416 255.557,402.16Z" style="fill:rgb(248,245,242);stroke:black;stroke-width:0.3px;"/>
        </g>
        <g transform="matrix(4.05326,0,0,2.32011,-1687.94,-582.757)">
            <rect x="307.426" y="248.527" width="31.078" height="43.885" style="fill:rgb(248,245,242);stroke:black;stroke-width:0.3px;"/>
        </g>
        <g transform="matrix(4.05326,0,0,2.37594,-1687.94,-596.632)">
            <rect x="369.139" y="316.584" width="31.078" height="178.902" style="fill:rgb(248,245,242);stroke:black;stroke-width:0.3px;"/>
        </g>
        <g transform="matrix(4.05326,0,0,2.37594,-1687.94,-596.632)">
            <path d="M429.193,507.278L464.694,513.848C465.284,520.137 466.648,524.461 468.786,526.819C471.736,530.188 476.381,531.873 482.722,531.873C490.832,531.873 496.915,530.02 500.97,526.314C503.698,523.843 505.763,519.856 507.163,514.353C508.122,510.423 508.601,503.179 508.601,492.622L508.601,466.511C499.311,485.828 487.588,495.486 473.432,495.486C457.653,495.486 445.156,485.322 435.939,464.995C428.714,448.935 425.101,428.945 425.101,405.024C425.101,375.039 429.838,352.128 439.313,336.293C448.787,320.458 460.565,312.541 474.648,312.541C489.173,312.541 501.154,322.255 510.592,341.684L510.592,316.584L539.679,316.584L539.679,477.124C539.679,498.238 538.536,514.016 536.25,524.461C533.965,534.905 530.757,543.103 526.628,549.056C522.499,555.008 516.988,559.669 510.094,563.038C503.2,566.407 494.482,568.091 483.938,568.091C464.031,568.091 449.911,562.897 441.58,552.509C433.248,542.121 429.082,528.953 429.082,513.006C429.082,511.433 429.119,509.524 429.193,507.278ZM456.953,402.329C456.953,421.308 459.367,435.206 464.197,444.022C469.026,452.838 474.98,457.246 482.058,457.246C489.652,457.246 496.067,452.726 501.302,443.685C506.537,434.645 509.154,421.252 509.154,403.508C509.154,384.978 506.647,371.22 501.634,362.236C496.62,353.251 490.279,348.759 482.611,348.759C475.164,348.759 469.026,353.167 464.197,361.983C459.367,370.799 456.953,384.248 456.953,402.329Z" style="fill:rgb(248,245,242);fill-rule:nonzero;stroke:black;stroke-width:0.3px;"/>
        </g>
        <g transform="matrix(4.05326,0,0,2.37594,-1687.94,-596.632)">
            <rect x="570.425" y="316.584" width="31.078" height="178.902" style="fill:rgb(248,245,242);stroke:black;stroke-width:0.3px;"/>
        </g>
        <g transform="matrix(4.05326,0,0,2.37594,-1687.94,-596.632)">
            <path d="M687.214,316.584L687.214,354.318L665.98,354.318L665.98,426.418C665.98,441.018 666.183,449.525 666.588,451.94C666.994,454.354 667.915,456.348 669.353,457.92C670.791,459.492 672.542,460.278 674.606,460.278C677.482,460.278 681.648,458.762 687.104,455.73L689.758,492.454C682.532,497.171 674.348,499.529 665.206,499.529C659.602,499.529 654.552,498.097 650.054,495.233C645.556,492.37 642.257,488.663 640.156,484.115C638.054,479.567 636.598,473.418 635.787,465.669C635.123,460.166 634.792,449.048 634.792,432.314L634.792,354.318L620.525,354.318L620.525,316.584L634.792,316.584L634.792,281.039L666.264,248.222L665.98,316.584L687.214,316.584Z" style="fill:rgb(248,245,242);fill-rule:nonzero;stroke:black;stroke-width:0.3px;"/>
        </g>
        <g transform="matrix(4.05326,0,0,2.37594,-1687.94,-596.632)">
            <path d="M732.006,371.164L703.804,363.415C706.974,346.12 712.43,333.317 720.172,325.007C727.914,316.696 739.416,312.541 754.678,312.541C768.539,312.541 778.862,315.039 785.645,320.037C792.428,325.035 797.202,331.38 799.967,339.073C802.732,346.766 804.115,360.888 804.115,381.44L803.783,436.694C803.783,452.417 804.281,464.012 805.276,471.481C806.271,478.949 808.133,486.951 810.861,495.486L780.115,495.486C779.304,492.341 778.309,487.681 777.129,481.504C776.613,478.696 776.244,476.843 776.023,475.945C770.715,483.806 765.037,489.702 758.991,493.633C752.945,497.564 746.494,499.529 739.637,499.529C727.545,499.529 718.015,494.531 711.048,484.536C704.08,474.541 700.596,461.907 700.596,446.633C700.596,436.526 702.182,427.513 705.352,419.596C708.523,411.678 712.965,405.614 718.679,401.402C724.393,397.191 732.633,393.513 743.397,390.368C757.922,386.213 767.987,382.338 773.59,378.745L773.59,374.028C773.59,364.931 772.115,358.445 769.166,354.571C766.217,350.696 760.65,348.759 752.466,348.759C746.936,348.759 742.623,350.416 739.526,353.729C736.43,357.042 733.923,362.853 732.006,371.164ZM773.59,409.572C769.609,411.594 763.305,414.008 754.678,416.816C746.052,419.624 740.411,422.375 737.757,425.071C733.702,429.45 731.674,435.01 731.674,441.748C731.674,448.374 733.296,454.102 736.54,458.931C739.784,463.76 743.913,466.174 748.927,466.174C754.531,466.174 759.876,463.367 764.964,457.751C768.724,453.484 771.194,448.262 772.374,442.085C773.185,438.042 773.59,430.349 773.59,419.006L773.59,409.572Z" style="fill:rgb(248,245,242);fill-rule:nonzero;stroke:black;stroke-width:0.3px;"/>
        </g>
        <g transform="matrix(4.05326,0,0,2.37594,-1687.94,-596.632)">
            <path d="M834.75,495.486L835.855,278.957L865.827,248.527L865.827,495.486L834.75,495.486Z" style="fill:rgb(248,245,242);fill-rule:nonzero;stroke:black;stroke-width:0.3px;"/>
        </g>
        <g transform="matrix(6.463,0,0,6.55173,-2571.3,-1936.09)">
            <ellipse cx="377.792" cy="302.291" rx="8.148" ry="7.756" style="fill:rgb(55,49,87);"/>
        </g>
    </g>
    <g id="Layer2" transform="matrix(1,0,0,1,0,-500)">
        <g transform="matrix(0.619228,0.493524,-0.573697,0.719822,1023.86,-574.048)">
            <path d="M1752.43,433.128L1751.19,729.301L1691.45,724.121L1691.89,428.089L1752.43,433.128Z" style="fill:rgb(213,110,8);"/>
        </g>
        <g transform="matrix(0.858202,-1.02265,0.766008,0.642831,-269.787,2314.07)">
            <path d="M2007.77,531.63L1998.47,677.841L1970.13,689.536L1972.4,532.388L2007.77,531.63Z" style="fill:rgb(213,110,8);"/>
        </g>
        <g transform="matrix(0.999466,-0.032674,0.032674,0.999466,-40.074,90.6898)">
            <path d="M1921.24,673.845L1966.89,716.538L1812.15,717.808L1850.56,672.433L1921.24,673.845Z" style="fill:rgb(213,110,8);"/>
        </g>
        <g transform="matrix(0.696967,-0.717103,0.717103,0.696967,11.6256,1449.99)">
            <path d="M1662.26,553.064L1671.53,708.94L1624.66,713.637L1626.63,567.111L1662.26,553.064Z" style="fill:rgb(213,110,8);"/>
        </g>
        <g transform="matrix(1.2134,0,0,1,-398.517,37.1836)">
            <path d="M1748.03,598.121L1718.45,644.317L1657.2,646.266L1619.65,606.269L1748.03,598.121Z" style="fill:rgb(213,110,8);"/>
        </g>
    </g>
</svg>
